Coordinates
version=1
nRows=10
nColumns=40
inDegrees=yes

Units are S.I. units (second, meters, Newtons, ...)
Angles are in degrees.

endheader
time	pelvis_tilt	pelvis_list	pelvis_rotation	pelvis_tx	pelvis_ty	pelvis_tz	hip_flexion_r	hip_adduction_r	hip_rotation_r	knee_angle_r	knee_angle_r_beta	ankle_angle_r	subtalar_angle_r	mtp_angle_r	hip_flexion_l	hip_adduction_l	hip_rotation_l	knee_angle_l	knee_angle_l_beta	ankle_angle_l	subtalar_angle_l	mtp_angle_l	lumbar_extension	lumbar_bending	lumbar_rotation	arm_flex_r	arm_add_r	arm_rot_r	elbow_flex_r	pro_sup_r	wrist_flex_r	wrist_dev_r	arm_flex_l	arm_add_l	arm_rot_l	elbow_flex_l	pro_sup_l	wrist_flex_l	wrist_dev_l
     52.25500000	     -3.38710708	     -6.52737907	      4.25957355	      0.78935360	      0.92387707	      0.50475419	     -0.07901751	      6.44496461	    -19.25391269	      8.42901903	      8.42901903	     14.46713212	      6.56701154	     -7.74042990	     30.27709429	     -9.47627623	     -2.73472947	     21.81277904	     21.81277904	      5.13484425	     -9.11597453	      8.53053584	     -8.71309708	      8.78022137	      3.04876185	     39.40047084	    -15.94229123	    -10.34693238	     69.62292575	     45.10595966	      0.00000000	      0.00000000	    -12.25716603	     -6.76125496	      4.10679966	     26.79913746	     44.33635420	      0.00000000	      0.00000000
     52.26835714	     -3.29785927	     -6.47835751	      4.18955399	      0.79008123	      0.92289656	      0.50308921	     -0.58892704	      6.28506828	    -19.03058665	      8.68316297	      8.68316297	     14.98577780	      6.41158043	     -7.73755955	     29.92135368	     -9.34047737	     -2.60852304	     22.55281484	     22.55281484	      4.90074486	     -9.40693696	      8.32464597	     -8.63033449	      8.54810092	      3.08299759	     38.79670524	    -15.85048469	    -10.41597688	     69.82562904	     45.10117831	      0.00000000	      0.00000000	    -12.38252529	     -6.83317543	      4.04069683	     26.80783797	     44.35326188	      0.00000000	      0.00000000
     52.28171429	     -3.36266310	     -6.43910171	      4.10963339	      0.79067639	      0.92171101	      0.50125837	     -0.66585407	      6.04739559	    -18.57266650	      9.44257777	      9.44257777	     15.69272515	      5.67576836	     -7.26357571	     29.76004107	     -9.13732035	     -2.25161084	     23.26723142	     23.26723142	      4.50634862	    -10.07560022	      7.77369072	     -8.42441651	      8.37225865	      3.15321833	     37.79177105	    -15.73491807	    -10.74480985	     70.87672630	     45.08014871	      0.00000000	      0.00000000	    -12.40465270	     -6.85186661	      3.80207856	     26.93958104	     44.41725351	      0.00000000	      0.00000000
     52.29507143	     -3.32868213	     -6.31430021	      4.02445812	      0.79141698	      0.92092136	      0.49928133	     -1.05261181	      5.75912882	    -18.27134442	      9.80936526	      9.80936526	     16.14045741	      5.38965439	     -7.08012839	     29.40252562	     -8.88918813	     -2.09688808	     23.83929685	     23.83929685	      4.47998148	    -10.39065614	      7.46027567	     -8.33207380	      8.05422240	      3.06776309	     36.90497559	    -15.56944590	    -10.82243048	     71.04511509	     45.07615232	      0.00000000	      0.00000000	    -12.28631691	     -6.92869656	      3.69172247	     26.94576018	     44.44774672	      0.00000000	      0.00000000
     52.30842857	     -3.44174359	     -6.16638925	      3.94166389	      0.79190929	      0.92005842	      0.49709508	     -0.93327372	      5.34447256	    -17.72576339	     10.84247079	     10.84247079	     16.88672643	      4.42913931	     -6.15439556	     29.22563778	     -8.55356810	     -1.82932411	     24.35631533	     24.35631533	      4.27303174	    -11.05721828	      6.74506173	     -8.12116195	      7.76279886	      3.21096060	     35.55283470	    -15.50067261	    -11.23388434	     71.89779520	     45.06538412	      0.00000000	      0.00000000	    -11.84709192	     -6.89124565	      3.33815089	     26.87395784	     44.54605048	      0.00000000	      0.00000000
     52.32178571	     -3.39073133	     -6.02272661	      3.90335150	      0.79258467	      0.91973275	      0.49469450	     -1.37884888	      5.01404108	    -17.56860288	     11.09254295	     11.09254295	     17.05356330	      4.30371761	     -6.07506453	     28.86983789	     -8.26794733	     -1.72335631	     24.87139934	     24.87139934	      4.58717385	    -11.28662501	      6.46873427	     -8.09818073	      7.49464870	      2.94702538	     34.56609245	    -15.19652829	    -11.16699958	     71.70169207	     45.06603847	      0.00000000	      0.00000000	    -11.47457184	     -6.90302308	      3.30400660	     26.94652898	     44.56148935	      0.00000000	      0.00000000
     52.33514286	     -3.45981114	     -5.84256053	      3.80115236	      0.79296903	      0.91948529	      0.49219128	     -1.19847750	      4.50763035	    -17.06050702	     12.35719504	     12.35719504	     18.19551242	      3.57798418	     -3.40416467	     28.59822359	     -7.90229026	     -1.53730132	     25.22567482	     25.22567482	      4.41222775	    -12.07805756	      5.35458806	     -8.02160949	      7.20568361	      3.51438425	     32.61734603	    -15.40780737	    -12.09595649	     72.84736960	     45.07765252	      0.00000000	      0.00000000	    -10.25363334	     -6.81573920	      2.35803824	     25.90223854	     44.82588344	      0.00000000	      0.00000000
     52.34850000	     -3.50647225	     -5.60185394	      3.72922013	      0.79327950	      0.91946296	      0.48941573	     -1.18107310	      3.90936802	    -16.94388479	     13.27473294	     13.27473294	     18.39174439	      3.31929416	     -3.30051308	     28.34293556	     -7.50789105	     -1.55740475	     25.67974984	     25.67974984	      4.85465845	    -12.36796360	      5.08521623	     -7.97716261	      6.87647322	      3.37586438	     31.44424711	    -15.23073858	    -12.01404948	     72.31684965	     45.09256499	      0.00000000	      0.00000000	     -9.56017707	     -6.80940862	      2.19601226	     25.98036619	     44.87979787	      0.00000000	      0.00000000
     52.36185714	     -3.48507819	     -5.42535646	      3.67073331	      0.79362296	      0.91981086	      0.48655346	     -1.32265860	      3.41005290	    -16.81638267	     13.98794857	     13.98794857	     18.41850299	      3.09820461	     -3.22109905	     27.98085600	     -7.17429505	     -1.54500984	     26.05229970	     26.05229970	      5.37985872	    -12.67137505	      4.85630863	     -8.03739431	      6.63405767	      3.14793890	     30.13658243	    -14.95136238	    -11.88992133	     71.76820904	     45.10294576	      0.00000000	      0.00000000	     -8.85598825	     -6.86737602	      2.10963759	     26.10311608	     44.91319765	      0.00000000	      0.00000000
     52.37521429	     -3.60259817	     -5.17551533	      3.55947366	      0.79376079	      0.92020390	      0.48347454	     -0.98257833	      2.68397697	    -16.69889122	     15.35578224	     15.35578224	     18.54530045	      2.77147477	     -3.06624237	     27.65766384	     -6.74118903	     -1.60641382	     26.23155303	     26.23155303	      5.85408265	    -13.01698296	      4.79528462	     -7.89213334	      6.37123867	      3.28225708	     28.74319980	    -15.02295686	    -11.81881959	     70.87753792	     45.12916309	      0.00000000	      0.00000000	     -7.78840565	     -6.81784620	      1.91361375	     26.15219199	     44.97902886	      0.00000000	      0.00000000
